<svg preserveAspectRatio="none" width="100%" height="100%" overflow="visible" style="display: block;" viewBox="0 0 9.33686 9.33686" fill="none" xmlns="http://www.w3.org/2000/svg">
<g id="Group">
<path id="Vector" d="M8.97086 5.29247C9.45882 5.78064 9.4589 6.57193 8.97086 7.06006L7.06003 8.97085C6.57194 9.45893 5.78061 9.45881 5.29244 8.97085L4.63165 8.31006L8.31003 4.63164L8.97086 5.29247ZM0.710756 0.121968C0.923777 0.0195309 1.16987 -0.0238524 1.42731 0.0129184L5.04669 0.530089C6.38828 0.72181 7.48044 1.70679 7.80915 3.02155L7.9959 3.76943C7.98511 3.77826 7.97507 3.78822 7.96499 3.79831L3.79832 7.96497C3.78824 7.97506 3.77828 7.9851 3.76944 7.99593L3.02155 7.80914C1.70679 7.48047 0.721814 6.38826 0.530089 5.04668L0.0129184 1.42731C-0.0238524 1.16987 0.0195309 0.923777 0.121968 0.710756L3.28847 3.87768C3.27015 3.94635 3.25959 4.01843 3.25959 4.09293C3.25966 4.5531 3.63273 4.92626 4.0929 4.92626H4.09782C4.55794 4.92618 4.93107 4.55306 4.93115 4.09293C4.93115 3.63273 4.55799 3.25966 4.09782 3.25959H4.0929C4.01844 3.25959 3.94636 3.27015 3.87765 3.28847L0.710756 0.121968Z" fill="var(--fill-0, #8A38F5)"/>
</g>
</svg>
