<svg preserveAspectRatio="none" width="100%" height="100%" overflow="visible" style="display: block;" viewBox="0 0 9.375 9.375" fill="none" xmlns="http://www.w3.org/2000/svg">
<g id="Group">
<path id="Vector" d="M3.77083 4C4.78334 4 5.60417 3.17919 5.60417 2.16667C5.60417 1.15414 4.78334 0.333333 3.77083 0.333333C2.75831 0.333333 1.9375 1.15414 1.9375 2.16667C1.9375 3.17919 2.75831 4 3.77083 4Z" stroke="var(--stroke-0, #FF5E00)" stroke-width="0.666667" stroke-linecap="round" stroke-linejoin="round"/>
<path id="Vector_2" d="M0.333333 8.58333V7.66667C0.333333 6.65416 1.15414 5.83333 2.16667 5.83333H4" stroke="var(--stroke-0, #FF5E00)" stroke-width="0.666667" stroke-linecap="round"/>
<path id="Vector_3" d="M7.66667 7.20833H7.20833V6.75" stroke="var(--stroke-0, #FF5E00)" stroke-width="0.666667" stroke-miterlimit="10" stroke-linecap="round" stroke-linejoin="round"/>
<path id="Vector_4" d="M7.20833 9.04167C8.22086 9.04167 9.04167 8.22086 9.04167 7.20833C9.04167 6.19581 8.22086 5.375 7.20833 5.375C6.19581 5.375 5.375 6.19581 5.375 7.20833C5.375 8.22086 6.19581 9.04167 7.20833 9.04167Z" stroke="var(--stroke-0, #FF5E00)" stroke-width="0.666667"/>
</g>
</svg>
